<svg width="512" height="512" viewBox="0 0 512 512" fill="none" xmlns="http://www.w3.org/2000/svg">
<g clip-path="url(#clip0_120_49)">
<path fill-rule="evenodd" clip-rule="evenodd" d="M452 256C452 364.248 364.248 452 256 452C147.752 452 60 364.248 60 256C60 147.752 147.752 60 256 60C364.248 60 452 147.752 452 256ZM512 256C512 397.385 397.385 512 256 512C114.615 512 0 397.385 0 256C0 114.615 114.615 0 256 0C397.385 0 512 114.615 512 256ZM255.5 218C234.789 218 218 234.789 218 255.5C218 257.403 218.142 259.272 218.415 261.099L207.519 279.971L192.519 305.952L177.519 331.933L162.519 357.913C154.235 372.262 159.151 390.61 173.5 398.894C187.849 407.178 206.197 402.262 214.481 387.913L229.481 361.933L244.481 335.952L259.481 309.971L262.432 304.859L266.607 309.033L287.82 330.246C299.536 341.962 318.53 341.962 330.246 330.246C341.962 318.53 341.962 299.536 330.246 287.82L309.033 266.607L292.629 250.202C290.055 232 274.412 218 255.5 218Z" fill="#099268"/>
</g>
<defs>
<clipPath id="clip0_120_49">
<rect width="512" height="512" fill="white"/>
</clipPath>
</defs>
</svg>
